# xmcd
#
# Track frame offsets: 
#        150
#        14862
#        30035
#        41750
#        54578
#        69628
#        82555
#        95470
#        109628
#        124690
#
# Disc length: 1849 seconds
#
# Revision: 5
# Processed by: cddbd v1.5.2PL0 Copyright (c) Steve Scherf et al.
# Submitted via: ExactAudioCopy v1.3
#
DISCID=7407370a
DTITLE=George Strait - Greatest Hits Vol. 2
DYEAR=1987
DGENRE=Country
TTITLE0=Does Fort Worth Ever Cross Your Mind
TTITLE1=The Cowboy Rides Away
TTITLE2=The Fireman
TTITLE3=The Chair
TTITLE4=You're Something Special To Me
TTITLE5=Nobody In His Right Mind Would've Left Her
TTITLE6=It Ain't Cool To Be Crazy About You
TTITLE7=Ocean Front Property
TTITLE8=All My Ex's Live In Texas
TTITLE9=Am I Blue
EXTD=
EXTT0=
EXTT1=
EXTT2=
EXTT3=
EXTT4=
EXTT5=
EXTT6=
EXTT7=
EXTT8=
EXTT9=
PLAYORDER=
